<svg width="778" height="696" viewBox="0 0 778 696" fill="none" xmlns="http://www.w3.org/2000/svg">
<g clip-path="url(#clip0)">
<path opacity="0.4" d="M533.597 95.2794C496.347 128.881 448.041 126.709 405.736 109.267C363.43 91.8238 324.509 60.6407 283.236 38.5081C248.85 20.0286 212.639 7.85978 175.653 2.35542C123.085 -5.36219 64.3711 4.04212 27.7431 58.378C-13.0447 118.893 -9.91636 228.017 34.2043 283.571C56.6398 311.825 86.0308 325.689 111.612 347.747C137.192 369.806 160.958 406.444 158.784 449.022C156.764 488.441 133.263 518.678 108.961 537.66C90.2077 552.33 67.0306 568.341 64.7632 598.726C62.5811 628.115 82.033 651.153 100.616 664.243C161.23 706.978 235.876 706.567 296.278 663.141C317.818 647.697 337.619 627.062 360.208 615C419.527 583.315 484.882 615.206 547.687 626.865C601.057 636.738 655.432 631.62 707.148 611.915C738.252 600.067 769.476 581.966 791.323 548.249C807.076 523.985 816.895 493.123 826.118 462.779C835.938 430.367 845.383 397.731 854.452 364.869C859.891 345.123 865.244 325.03 866.65 303.926C869.208 265.667 858.467 227.828 843.857 195.584C809.181 118.942 750.748 65.0507 687.517 51.3598C624.285 37.6688 557.285 64.409 508.221 122.941" fill="#2A9ED1"/>
<g filter="url(#filter0_d)">
<path d="M636.648 489.426H562.181L564.704 457.758H634.116L636.648 489.426Z" fill="#E6E6E6"/>
</g>
<g filter="url(#filter1_d)">
<path d="M641.063 485.773H557.766V493.08H641.063V485.773Z" fill="#E6E6E6"/>
</g>
<path d="M741.707 253.71H457.113C455.105 253.713 453.179 254.484 451.76 255.856C450.341 257.227 449.544 259.086 449.544 261.025V428.517H749.276V261.025C749.276 259.086 748.479 257.227 747.06 255.856C745.641 254.484 743.715 253.713 741.707 253.71Z" fill="#3F3D56"/>
<g filter="url(#filter2_d)">
<path d="M449.544 428.517V455.931C449.544 457.87 450.341 459.729 451.76 461.101C453.179 462.472 455.105 463.244 457.113 463.246H741.707C743.715 463.244 745.641 462.472 747.06 461.101C748.479 459.729 749.276 457.87 749.276 455.931V428.517H449.544Z" fill="#E6E6E6"/>
</g>
<path d="M734.453 266.274H464.376V412.456H734.453V266.274Z" fill="#E6E6E6"/>
<path d="M599.414 452.879C603.595 452.879 606.984 449.608 606.984 445.573C606.984 441.537 603.595 438.266 599.414 438.266C595.234 438.266 591.845 441.537 591.845 445.573C591.845 449.608 595.234 452.879 599.414 452.879Z" fill="#3F3D56"/>
<path d="M599.414 275.119C600.21 275.119 600.855 274.496 600.855 273.728C600.855 272.96 600.21 272.338 599.414 272.338C598.619 272.338 597.974 272.96 597.974 273.728C597.974 274.496 598.619 275.119 599.414 275.119Z" fill="white"/>
<path d="M599.414 275.119C600.21 275.119 600.855 274.496 600.855 273.728C600.855 272.96 600.21 272.338 599.414 272.338C598.619 272.338 597.974 272.96 597.974 273.728C597.974 274.496 598.619 275.119 599.414 275.119Z" fill="white"/>
<path d="M599.414 275.119C600.21 275.119 600.855 274.496 600.855 273.728C600.855 272.96 600.21 272.338 599.414 272.338C598.619 272.338 597.974 272.96 597.974 273.728C597.974 274.496 598.619 275.119 599.414 275.119Z" fill="white"/>
<path d="M599.414 356.261C600.836 356.261 601.989 355.148 601.989 353.776C601.989 352.404 600.836 351.291 599.414 351.291C597.993 351.291 596.84 352.404 596.84 353.776C596.84 355.148 597.993 356.261 599.414 356.261Z" fill="#6C63FF"/>
<path d="M599.414 356.261C600.836 356.261 601.989 355.148 601.989 353.776C601.989 352.404 600.836 351.291 599.414 351.291C597.993 351.291 596.84 352.404 596.84 353.776C596.84 355.148 597.993 356.261 599.414 356.261Z" fill="#E6E6E6"/>
<path d="M599.414 356.261C600.836 356.261 601.989 355.148 601.989 353.776C601.989 352.404 600.836 351.291 599.414 351.291C597.993 351.291 596.84 352.404 596.84 353.776C596.84 355.148 597.993 356.261 599.414 356.261Z" fill="#E6E6E6"/>
<path d="M705.156 266.274H498.83V410.432H705.156V266.274Z" fill="url(#paint0_linear)"/>
<path d="M734.453 266.274H464.376V412.456H734.453V266.274Z" fill="white"/>
<path d="M703.28 268.389H501.396V281.816H703.28V268.389Z" fill="#BDBDBD"/>
<path d="M510.943 278.402C512.746 278.402 514.207 276.924 514.207 275.102C514.207 273.28 512.746 271.803 510.943 271.803C509.14 271.803 507.678 273.28 507.678 275.102C507.678 276.924 509.14 278.402 510.943 278.402Z" fill="#FF5252"/>
<path d="M520.302 278.402C522.105 278.402 523.567 276.924 523.567 275.102C523.567 273.28 522.105 271.803 520.302 271.803C518.499 271.803 517.037 273.28 517.037 275.102C517.037 276.924 518.499 278.402 520.302 278.402Z" fill="#FFFF00"/>
<path d="M529.662 278.402C531.465 278.402 532.926 276.924 532.926 275.102C532.926 273.28 531.465 271.803 529.662 271.803C527.859 271.803 526.397 273.28 526.397 275.102C526.397 276.924 527.859 278.402 529.662 278.402Z" fill="#69F0AE"/>
<path d="M554.612 295.713H520.302V299.72H554.612V295.713Z" fill="#E0E0E0"/>
<path d="M554.612 302.311H520.302V306.318H554.612V302.311Z" fill="#E0E0E0"/>
<path d="M577.482 308.91H520.302V312.917H577.482V308.91Z" fill="#E0E0E0"/>
<path d="M588.222 315.5H520.302V319.507H588.222V315.5Z" fill="#E0E0E0"/>
<path d="M533.37 340.472H523.098V388.999H533.37V340.472Z" fill="#F5F5F5"/>
<path d="M550.409 340.472H540.138V388.999H550.409V340.472Z" fill="#F5F5F5"/>
<path d="M567.449 340.472H557.177V388.999H567.449V340.472Z" fill="#F5F5F5"/>
<path d="M584.489 340.472H574.217V388.999H584.489V340.472Z" fill="#F5F5F5"/>
<path d="M533.37 364.735H523.098V388.999H533.37V364.735Z" fill="#2196F3"/>
<g opacity="0.4">
<path opacity="0.4" d="M533.37 354.607H523.098V365.204H533.37V354.607Z" fill="#2196F3"/>
</g>
<path d="M550.409 370.001H540.138V388.999H550.409V370.001Z" fill="#69F0AE"/>
<path opacity="0.4" d="M550.409 357.668H540.138V370.001H550.409V357.668Z" fill="#69F0AE"/>
<path d="M567.449 361.197H557.177V388.991H567.449V361.197Z" fill="#6C63FF"/>
<path opacity="0.4" d="M567.449 351.538H557.177V361.197H567.449V351.538Z" fill="#6C63FF"/>
<path d="M584.489 370.857H574.217V388.991H584.489V370.857Z" fill="#FFFF00"/>
<path opacity="0.4" d="M584.489 365.204H574.217V370.857H584.489V365.204Z" fill="#FFFF00"/>
<path d="M646.45 306.31H646.331V357.668H646.45C660.507 357.668 671.895 346.149 671.895 331.989C671.895 317.829 660.507 306.31 646.45 306.31Z" fill="url(#paint1_linear)"/>
<path d="M622.412 323.572C617.809 336.975 624.85 351.612 638.131 356.252C640.761 357.171 643.534 357.65 646.331 357.668V335.584L622.412 323.572Z" fill="url(#paint2_linear)"/>
<path d="M646.331 306.31C635.539 306.359 625.95 313.279 622.412 323.588L646.331 335.601V306.31Z" fill="url(#paint3_linear)"/>
<path d="M646.45 307.495H646.331V356.483H646.45C659.85 356.483 670.718 345.515 670.718 331.989C670.718 318.462 659.85 307.495 646.45 307.495Z" fill="#6C63FF"/>
<path d="M623.512 323.959C619.122 336.753 625.839 350.707 638.514 355.142C641.021 356.016 643.665 356.47 646.331 356.483V335.42L623.512 323.959Z" fill="#2196F3"/>
<path d="M646.331 307.495C636.034 307.495 626.888 314.135 623.512 323.95L646.331 335.412V307.495Z" fill="#69F0AE"/>
<path d="M624.16 362.851H621.125V366.15H624.16V362.851Z" fill="#2196F3"/>
<path d="M649.366 362.851H646.331V366.15H649.366V362.851Z" fill="#7C4DFF"/>
<path d="M674.58 362.851H671.545V366.15H674.58V362.851Z" fill="#69F0AE"/>
<path d="M635.599 363.559H625.097V365.443H635.599V363.559Z" fill="#F5F5F5"/>
<path d="M661.035 363.559H650.533V365.443H661.035V363.559Z" fill="#F5F5F5"/>
<path d="M686.479 363.559H675.978V365.443H686.479V363.559Z" fill="#F5F5F5"/>
<g filter="url(#filter3_d)">
<path d="M314.854 118.167H314.096V116.883H314.667C314.767 116.881 314.863 116.841 314.933 116.772C315.003 116.703 315.042 116.61 315.042 116.513V109.931C315.042 109.834 315.003 109.741 314.933 109.672C314.863 109.603 314.767 109.563 314.667 109.56H314.096V105.817C314.096 104.77 313.882 103.734 313.467 102.767C313.052 101.8 312.443 100.922 311.676 100.182C310.909 99.4425 309.998 98.856 308.996 98.4563C307.994 98.0565 306.92 97.8513 305.836 97.8524H304.984V96.9391C304.984 96.8423 304.944 96.7494 304.874 96.6802C304.804 96.611 304.709 96.571 304.609 96.5688H297.789C297.739 96.5688 297.69 96.5785 297.644 96.5972C297.598 96.6159 297.556 96.6433 297.521 96.6778C297.486 96.7123 297.459 96.7531 297.44 96.798C297.422 96.8429 297.413 96.8909 297.414 96.9391V97.8524H174.096C173.012 97.8513 171.938 98.0565 170.936 98.4563C169.934 98.856 169.023 99.4425 168.256 100.182C167.489 100.922 166.88 101.8 166.465 102.767C166.05 103.734 165.836 104.77 165.836 105.817V275.431C165.836 276.478 166.05 277.515 166.465 278.482C166.88 279.45 167.488 280.329 168.255 281.069C169.022 281.809 169.933 282.397 170.935 282.797C171.937 283.198 173.011 283.404 174.096 283.404H305.836C306.921 283.404 307.995 283.198 308.997 282.797C309.999 282.397 310.91 281.809 311.677 281.069C312.444 280.329 313.052 279.45 313.467 278.482C313.882 277.515 314.096 276.478 314.096 275.431V125.481H314.854C314.904 125.481 314.953 125.472 314.998 125.454C315.044 125.435 315.085 125.409 315.12 125.375C315.155 125.341 315.182 125.302 315.201 125.258C315.22 125.214 315.23 125.167 315.23 125.119V118.537C315.23 118.489 315.22 118.442 315.201 118.398C315.182 118.354 315.155 118.314 315.12 118.281C315.085 118.247 315.044 118.221 314.998 118.202C314.953 118.184 314.904 118.175 314.854 118.175V118.167Z" fill="#3F3D56"/>
</g>
<g filter="url(#filter4_d)">
<path d="M308.41 103.069H172.664V276.912H308.41V103.069Z" fill="#F2F2F2"/>
</g>
<path d="M292.956 111.667H213.367V114.522H292.956V111.667Z" fill="#CCCCCC"/>
<path d="M292.956 120.709H213.367V123.564H292.956V120.709Z" fill="#CCCCCC"/>
<path d="M292.956 129.751H213.367V132.606H292.956V129.751Z" fill="#CCCCCC"/>
<path d="M206.155 113.436H188.127V130.837H206.155V113.436Z" fill="#CCCCCC"/>
<path d="M292.675 247.103H213.085V249.958H292.675V247.103Z" fill="#CCCCCC"/>
<path d="M292.675 256.146H213.085V259.001H292.675V256.146Z" fill="#CCCCCC"/>
<path d="M292.675 265.188H213.085V268.043H292.675V265.188Z" fill="#CCCCCC"/>
<path d="M205.882 248.872H187.854V266.274H205.882V248.872Z" fill="#CCCCCC"/>
<path d="M208.056 204.212C215.485 204.212 221.507 198.399 221.507 191.229C221.507 184.058 215.485 178.245 208.056 178.245C200.627 178.245 194.605 184.058 194.605 191.229C194.605 198.399 200.627 204.212 208.056 204.212Z" fill="#23B9DB"/>
<path d="M243.917 201.834C249.985 201.834 254.905 197.086 254.905 191.229C254.905 185.372 249.985 180.623 243.917 180.623C237.849 180.623 232.929 185.372 232.929 191.229C232.929 197.086 237.849 201.834 243.917 201.834Z" fill="#23B9DB"/>
<path d="M279.778 197.679C283.469 197.679 286.461 194.791 286.461 191.229C286.461 187.666 283.469 184.778 279.778 184.778C276.087 184.778 273.095 187.666 273.095 191.229C273.095 194.791 276.087 197.679 279.778 197.679Z" fill="#23B9DB"/>
<path d="M606.984 290.266V203.562" stroke="#293D5E" stroke-miterlimit="10" stroke-linecap="round"/>
<path d="M606.984 290.266C608.58 290.266 609.873 289.017 609.873 287.477C609.873 285.936 608.58 284.688 606.984 284.688C605.388 284.688 604.094 285.936 604.094 287.477C604.094 289.017 605.388 290.266 606.984 290.266Z" fill="#094C6D"/>
<path d="M606.984 203.562H301.864" stroke="#293D5E" stroke-miterlimit="10" stroke-linecap="round"/>
<path d="M365.564 213.724H366.204" stroke="black" stroke-miterlimit="10" stroke-linecap="round"/>
<path d="M474.715 375.094H395.007" stroke="#293D5E" stroke-miterlimit="10" stroke-linecap="round"/>
<path d="M395.007 375.094V494.264" stroke="#293D5E" stroke-miterlimit="10" stroke-linecap="round"/>
<path d="M298.974 206.351C300.57 206.351 301.864 205.103 301.864 203.562C301.864 202.022 300.57 200.773 298.974 200.773C297.378 200.773 296.084 202.022 296.084 203.562C296.084 205.103 297.378 206.351 298.974 206.351Z" fill="#094C6D"/>
<g filter="url(#filter5_d)">
<g clip-path="url(#clip1)">
<path d="M286 451.801H284.98V425.33C285.065 416.869 278.095 410 269.509 410H212.556C203.97 410 197 416.869 197 425.33V570.67C197 579.131 203.97 586 212.556 586H269.509C278.095 586 285.065 579.131 285.065 570.67V470.649H286.085L286 451.801Z" fill="#3F3D56"/>
<path d="M281.92 424.325V571.675C281.92 578.126 276.649 583.319 270.104 583.319H211.961C205.415 583.319 200.145 578.126 200.145 571.675V424.325C200.145 417.874 205.5 412.681 211.961 412.681H219.016C217.826 415.529 219.271 418.712 222.076 419.885C222.756 420.136 223.436 420.304 224.202 420.304H257.353C260.414 420.304 262.964 417.791 262.964 414.775C262.964 414.105 262.794 413.351 262.539 412.681H270.104C276.564 412.681 281.92 417.874 281.92 424.325Z" fill="#E6E6E6"/>
<path d="M270.359 501.058H211.706V558.859H270.359V501.058Z" fill="white"/>
<path d="M257.693 475.005H224.627V477.435H257.693V475.005Z" fill="white"/>
<path d="M261.859 481.372H220.206V483.801H261.859V481.372Z" fill="white"/>
<path d="M251.403 506.586H228.622V508.262H251.403V506.586Z" fill="#E6E6E6"/>
<path d="M263.899 511.613H228.622V513.288H263.899V511.613Z" fill="#23B9DB"/>
<path d="M257.693 516.304H228.962V517.979H257.693V516.304Z" fill="#E6E6E6"/>
<path d="M245.368 521.497H228.622V523.173H245.368V521.497Z" fill="#E6E6E6"/>
<path d="M253.953 526.524H228.622V528.199H253.953V526.524Z" fill="#23B9DB"/>
<path d="M221.056 506.084H218.251V508.848H221.056V506.084Z" fill="#E6E6E6"/>
<path d="M221.056 511.026H218.251V513.791H221.056V511.026Z" fill="#23B9DB"/>
<path d="M221.056 515.801H218.251V518.565H221.056V515.801Z" fill="#E6E6E6"/>
<path d="M221.056 520.995H218.251V523.759H221.056V520.995Z" fill="#E6E6E6"/>
<path d="M221.056 526.021H218.251V528.785H221.056V526.021Z" fill="#23B9DB"/>
<path d="M251.403 531.634H228.622V533.309H251.403V531.634Z" fill="#E6E6E6"/>
<path d="M263.899 536.66H228.622V538.335H263.899V536.66Z" fill="#23B9DB"/>
<path d="M257.693 541.351H228.962V543.026H257.693V541.351Z" fill="#E6E6E6"/>
<path d="M245.368 546.544H228.622V548.22H245.368V546.544Z" fill="#E6E6E6"/>
<path d="M253.953 551.571H228.622V553.246H253.953V551.571Z" fill="#E6E6E6"/>
<path d="M221.056 531.131H218.251V533.895H221.056V531.131Z" fill="#E6E6E6"/>
<path d="M221.056 536.073H218.251V538.838H221.056V536.073Z" fill="#23B9DB"/>
<path d="M221.056 540.848H218.251V543.613H221.056V540.848Z" fill="#E6E6E6"/>
<path d="M221.056 546.042H218.251V548.806H221.056V546.042Z" fill="#E6E6E6"/>
<path d="M221.056 551.068H218.251V553.832H221.056V551.068Z" fill="#E6E6E6"/>
<path d="M241.032 467.633C251.596 467.633 260.159 459.195 260.159 448.785C260.159 438.376 251.596 429.937 241.032 429.937C230.469 429.937 221.906 438.376 221.906 448.785C221.906 459.195 230.469 467.633 241.032 467.633Z" fill="white"/>
<path d="M240.862 439.571C235.677 439.571 231.427 443.759 231.427 448.869C231.427 453.979 235.677 458.168 240.862 458.168C246.048 458.168 250.298 453.979 250.298 448.869C250.298 443.759 246.048 439.571 240.862 439.571ZM240.862 442.335C242.393 442.335 243.668 443.592 243.668 445.099C243.668 446.607 242.393 447.864 240.862 447.864C239.332 447.864 238.057 446.607 238.057 445.099C238.057 443.592 239.332 442.335 240.862 442.335ZM240.862 455.738C238.567 455.738 236.442 454.649 235.167 452.806C235.252 450.963 238.907 449.958 240.862 449.958C242.818 449.958 246.473 450.963 246.558 452.806C245.283 454.649 243.158 455.738 240.862 455.738Z" fill="#23B9DB"/>
</g>
</g>
<path d="M476.71 377.883C478.306 377.883 479.6 376.634 479.6 375.094C479.6 373.553 478.306 372.305 476.71 372.305C475.114 372.305 473.82 373.553 473.82 375.094C473.82 376.634 475.114 377.883 476.71 377.883Z" fill="#094C6D"/>
<path d="M275.601 497.054C277.197 497.054 278.491 495.805 278.491 494.264C278.491 492.724 277.197 491.475 275.601 491.475C274.005 491.475 272.711 492.724 272.711 494.264C272.711 495.805 274.005 497.054 275.601 497.054Z" fill="#094C6D"/>
<path d="M275.081 266.274V426.706" stroke="#293D5E" stroke-miterlimit="10" stroke-linecap="round"/>
<path d="M275.081 267.977C276.677 267.977 277.971 266.728 277.971 265.188C277.971 263.647 276.677 262.399 275.081 262.399C273.485 262.399 272.191 263.647 272.191 265.188C272.191 266.728 273.485 267.977 275.081 267.977Z" fill="#094C6D"/>
<path d="M275.081 431.306C276.677 431.306 277.971 430.057 277.971 428.517C277.971 426.976 276.677 425.727 275.081 425.727C273.485 425.727 272.191 426.976 272.191 428.517C272.191 430.057 273.485 431.306 275.081 431.306Z" fill="#094C6D"/>
<path d="M537.18 188.719H516.381V202.772H537.18V188.719Z" fill="#B0B0F4"/>
<path d="M539.26 201.695H519.288C519.062 201.695 518.845 201.608 518.685 201.454C518.525 201.299 518.435 201.09 518.435 200.872V187.625C518.435 187.407 518.525 187.198 518.685 187.043C518.845 186.889 519.062 186.802 519.288 186.802H539.26C539.486 186.802 539.703 186.889 539.863 187.043C540.022 187.198 540.112 187.407 540.112 187.625V200.872C540.112 201.09 540.022 201.299 539.863 201.454C539.703 201.608 539.486 201.695 539.26 201.695ZM519.288 187.642V200.872H539.26V187.625L519.288 187.642Z" fill="#3F3D56"/>
<path d="M536.967 187.115H536.114C536.147 186.225 535.993 185.338 535.663 184.506C535.333 183.675 534.832 182.916 534.191 182.276C533.55 181.635 532.782 181.125 531.933 180.777C531.084 180.429 530.171 180.25 529.248 180.25C528.326 180.25 527.412 180.429 526.563 180.777C525.714 181.125 524.946 181.635 524.305 182.276C523.665 182.916 523.164 183.675 522.834 184.506C522.503 185.338 522.35 186.225 522.382 187.115H521.53C521.53 185.146 522.34 183.257 523.783 181.864C525.226 180.472 527.182 179.689 529.223 179.689C531.263 179.689 533.22 180.472 534.662 181.864C536.105 183.257 536.916 185.146 536.916 187.115H536.967Z" fill="#3F3D56"/>
<path d="M531.349 192.644C531.35 192.294 531.255 191.951 531.076 191.647C530.896 191.344 530.637 191.091 530.325 190.913C530.013 190.736 529.658 190.64 529.296 190.636C528.934 190.631 528.577 190.718 528.26 190.888C527.944 191.057 527.678 191.304 527.491 191.603C527.303 191.902 527.199 192.243 527.19 192.592C527.181 192.942 527.267 193.288 527.439 193.595C527.61 193.903 527.862 194.162 528.17 194.347V196.495C528.17 196.777 528.286 197.048 528.492 197.248C528.697 197.448 528.977 197.562 529.27 197.564C529.563 197.564 529.845 197.451 530.053 197.251C530.261 197.05 530.378 196.778 530.378 196.495V194.347C530.675 194.165 530.92 193.914 531.09 193.616C531.26 193.318 531.349 192.984 531.349 192.644Z" fill="#3F3D56"/>
<path d="M392.1 479.66H371.301V493.713H392.1V479.66Z" fill="#B0B0F4"/>
<path d="M394.171 492.602H374.208C373.982 492.602 373.765 492.516 373.605 492.361C373.445 492.207 373.355 491.998 373.355 491.78V478.549C373.355 478.331 373.445 478.122 373.605 477.968C373.765 477.813 373.982 477.727 374.208 477.727H394.171C394.397 477.727 394.614 477.813 394.774 477.968C394.934 478.122 395.024 478.331 395.024 478.549V491.804C395.017 492.018 394.924 492.221 394.765 492.37C394.606 492.519 394.393 492.602 394.171 492.602ZM374.208 478.549V491.804H394.171V478.549H374.208Z" fill="#3F3D56"/>
<path d="M391.861 478.047H391.009C391.009 476.291 390.286 474.606 388.999 473.364C387.712 472.122 385.967 471.424 384.147 471.424C382.327 471.424 380.582 472.122 379.295 473.364C378.008 474.606 377.285 476.291 377.285 478.047H376.433C376.433 476.077 377.243 474.187 378.687 472.794C380.131 471.401 382.088 470.618 384.13 470.618C386.171 470.618 388.129 471.401 389.573 472.794C391.016 474.187 391.827 476.077 391.827 478.047H391.861Z" fill="#3F3D56"/>
<path d="M386.269 483.568C386.269 483.219 386.175 482.875 385.995 482.572C385.816 482.268 385.557 482.015 385.245 481.838C384.933 481.66 384.578 481.564 384.216 481.56C383.854 481.555 383.497 481.642 383.18 481.812C382.863 481.982 382.598 482.228 382.411 482.527C382.223 482.826 382.119 483.167 382.11 483.517C382.101 483.866 382.187 484.212 382.359 484.52C382.53 484.827 382.782 485.087 383.09 485.271V487.427C383.09 487.709 383.206 487.979 383.412 488.178C383.618 488.377 383.898 488.488 384.189 488.488C384.481 488.488 384.761 488.377 384.967 488.178C385.173 487.979 385.289 487.709 385.289 487.427V485.271C385.59 485.092 385.838 484.842 386.01 484.543C386.181 484.245 386.271 483.909 386.269 483.568Z" fill="#6F6FF7"/>
<path d="M295.411 358.688H274.612V372.741H295.411V358.688Z" fill="#B0B0F4"/>
<path d="M297.482 371.638H277.519C277.293 371.638 277.076 371.552 276.916 371.397C276.756 371.243 276.667 371.034 276.667 370.816V357.569C276.667 357.351 276.756 357.141 276.916 356.987C277.076 356.833 277.293 356.746 277.519 356.746H297.482C297.708 356.746 297.925 356.833 298.085 356.987C298.245 357.141 298.335 357.351 298.335 357.569V370.816C298.335 371.034 298.245 371.243 298.085 371.397C297.925 371.552 297.708 371.638 297.482 371.638ZM277.519 357.585V370.832H297.482V357.585H277.519Z" fill="#3F3D56"/>
<path d="M295.198 357.083H294.345C294.345 355.327 293.623 353.642 292.336 352.4C291.049 351.158 289.303 350.46 287.484 350.46C285.664 350.46 283.918 351.158 282.632 352.4C281.345 353.642 280.622 355.327 280.622 357.083H279.769C279.769 355.113 280.58 353.223 282.024 351.83C283.467 350.437 285.425 349.654 287.467 349.654C289.508 349.654 291.466 350.437 292.909 351.83C294.353 353.223 295.164 355.113 295.164 357.083H295.198Z" fill="#3F3D56"/>
<path d="M289.572 362.604C289.572 362.255 289.478 361.911 289.298 361.607C289.118 361.304 288.86 361.051 288.548 360.873C288.236 360.696 287.881 360.6 287.519 360.596C287.157 360.591 286.8 360.678 286.483 360.848C286.166 361.018 285.901 361.264 285.713 361.563C285.526 361.862 285.422 362.203 285.413 362.553C285.404 362.902 285.489 363.248 285.661 363.556C285.833 363.863 286.085 364.123 286.393 364.307V366.455C286.392 366.737 286.508 367.008 286.714 367.208C286.92 367.409 287.2 367.522 287.492 367.524C287.785 367.522 288.064 367.409 288.27 367.208C288.476 367.008 288.592 366.737 288.592 366.455V364.307C288.891 364.127 289.139 363.876 289.31 363.578C289.482 363.28 289.572 362.945 289.572 362.604Z" fill="#6F6FF7"/>
<circle cx="308.477" cy="98.5228" r="12.4771" fill="#82FECA"/>
<circle cx="312.03" cy="95.4771" r="11.4771" stroke="black" stroke-width="2"/>
<line y1="-1.5" x2="9.09808" y2="-0.247509" transform="matrix(0.647179 0.762338 -0.732009 0.681295 303.516 95.4291)" stroke="black" stroke-width="3"/>
<path d="M309.028 101.917L321.295 90.6144" stroke="black" stroke-width="3"/>
<circle cx="200.693" cy="416.791" r="12.6926" fill="#82FECA"/>
<circle cx="204.307" cy="413.693" r="11.6926" stroke="black" stroke-width="2"/>
<line y1="-1.5" x2="9.25523" y2="-0.225874" transform="matrix(0.647179 0.762338 -0.732009 0.681295 195.646 413.644)" stroke="black" stroke-width="3"/>
<path d="M201.253 420.244L213.731 408.746" stroke="black" stroke-width="3"/>
<path d="M277.638 494.264H395.007" stroke="#293D5E" stroke-miterlimit="10" stroke-linecap="round"/>
</g>
<defs>
<filter id="filter0_d" x="558.181" y="457.758" width="82.4665" height="39.6685" filterUnits="userSpaceOnUse" color-interpolation-filters="sRGB">
<feFlood flood-opacity="0" result="BackgroundImageFix"/>
<feColorMatrix in="SourceAlpha" type="matrix" values="0 0 0 0 0 0 0 0 0 0 0 0 0 0 0 0 0 0 127 0"/>
<feOffset dy="4"/>
<feGaussianBlur stdDeviation="2"/>
<feColorMatrix type="matrix" values="0 0 0 0 0.431373 0 0 0 0 0.639216 0 0 0 0 0.737255 0 0 0 1 0"/>
<feBlend mode="normal" in2="BackgroundImageFix" result="effect1_dropShadow"/>
<feBlend mode="normal" in="SourceGraphic" in2="effect1_dropShadow" result="shape"/>
</filter>
<filter id="filter1_d" x="553.766" y="485.773" width="91.2974" height="15.3062" filterUnits="userSpaceOnUse" color-interpolation-filters="sRGB">
<feFlood flood-opacity="0" result="BackgroundImageFix"/>
<feColorMatrix in="SourceAlpha" type="matrix" values="0 0 0 0 0 0 0 0 0 0 0 0 0 0 0 0 0 0 127 0"/>
<feOffset dy="4"/>
<feGaussianBlur stdDeviation="2"/>
<feColorMatrix type="matrix" values="0 0 0 0 0.431373 0 0 0 0 0.639216 0 0 0 0 0.737255 0 0 0 1 0"/>
<feBlend mode="normal" in2="BackgroundImageFix" result="effect1_dropShadow"/>
<feBlend mode="normal" in="SourceGraphic" in2="effect1_dropShadow" result="shape"/>
</filter>
<filter id="filter2_d" x="445.544" y="428.517" width="307.733" height="42.7292" filterUnits="userSpaceOnUse" color-interpolation-filters="sRGB">
<feFlood flood-opacity="0" result="BackgroundImageFix"/>
<feColorMatrix in="SourceAlpha" type="matrix" values="0 0 0 0 0 0 0 0 0 0 0 0 0 0 0 0 0 0 127 0"/>
<feOffset dy="4"/>
<feGaussianBlur stdDeviation="2"/>
<feColorMatrix type="matrix" values="0 0 0 0 0.431373 0 0 0 0 0.639216 0 0 0 0 0.737255 0 0 0 1 0"/>
<feBlend mode="normal" in2="BackgroundImageFix" result="effect1_dropShadow"/>
<feBlend mode="normal" in="SourceGraphic" in2="effect1_dropShadow" result="shape"/>
</filter>
<filter id="filter3_d" x="161.836" y="96.5688" width="157.393" height="194.835" filterUnits="userSpaceOnUse" color-interpolation-filters="sRGB">
<feFlood flood-opacity="0" result="BackgroundImageFix"/>
<feColorMatrix in="SourceAlpha" type="matrix" values="0 0 0 0 0 0 0 0 0 0 0 0 0 0 0 0 0 0 127 0"/>
<feOffset dy="4"/>
<feGaussianBlur stdDeviation="2"/>
<feColorMatrix type="matrix" values="0 0 0 0 0.431373 0 0 0 0 0.639216 0 0 0 0 0.737255 0 0 0 1 0"/>
<feBlend mode="normal" in2="BackgroundImageFix" result="effect1_dropShadow"/>
<feBlend mode="normal" in="SourceGraphic" in2="effect1_dropShadow" result="shape"/>
</filter>
<filter id="filter4_d" x="168.664" y="103.069" width="143.746" height="181.844" filterUnits="userSpaceOnUse" color-interpolation-filters="sRGB">
<feFlood flood-opacity="0" result="BackgroundImageFix"/>
<feColorMatrix in="SourceAlpha" type="matrix" values="0 0 0 0 0 0 0 0 0 0 0 0 0 0 0 0 0 0 127 0"/>
<feOffset dy="4"/>
<feGaussianBlur stdDeviation="2"/>
<feColorMatrix type="matrix" values="0 0 0 0 0 0 0 0 0 0 0 0 0 0 0 0 0 0 0.25 0"/>
<feBlend mode="normal" in2="BackgroundImageFix" result="effect1_dropShadow"/>
<feBlend mode="normal" in="SourceGraphic" in2="effect1_dropShadow" result="shape"/>
</filter>
<filter id="filter5_d" x="193" y="410" width="97" height="184" filterUnits="userSpaceOnUse" color-interpolation-filters="sRGB">
<feFlood flood-opacity="0" result="BackgroundImageFix"/>
<feColorMatrix in="SourceAlpha" type="matrix" values="0 0 0 0 0 0 0 0 0 0 0 0 0 0 0 0 0 0 127 0"/>
<feOffset dy="4"/>
<feGaussianBlur stdDeviation="2"/>
<feColorMatrix type="matrix" values="0 0 0 0 0.430208 0 0 0 0 0.640923 0 0 0 0 0.7375 0 0 0 1 0"/>
<feBlend mode="normal" in2="BackgroundImageFix" result="effect1_dropShadow"/>
<feBlend mode="normal" in="SourceGraphic" in2="effect1_dropShadow" result="shape"/>
</filter>
<linearGradient id="paint0_linear" x1="601.989" y1="410.424" x2="601.989" y2="266.274" gradientUnits="userSpaceOnUse">
<stop stop-color="#808080" stop-opacity="0.25"/>
<stop offset="0.54" stop-color="#808080" stop-opacity="0.12"/>
<stop offset="1" stop-color="#808080" stop-opacity="0.1"/>
</linearGradient>
<linearGradient id="paint1_linear" x1="29412" y1="1783.04" x2="29412" y2="-1422.69" gradientUnits="userSpaceOnUse">
<stop stop-color="#808080" stop-opacity="0.25"/>
<stop offset="0.54" stop-color="#808080" stop-opacity="0.12"/>
<stop offset="1" stop-color="#808080" stop-opacity="0.1"/>
</linearGradient>
<linearGradient id="paint2_linear" x1="28364.4" y1="1117.25" x2="28364.4" y2="-295.673" gradientUnits="userSpaceOnUse">
<stop stop-color="#808080" stop-opacity="0.25"/>
<stop offset="0.54" stop-color="#808080" stop-opacity="0.12"/>
<stop offset="1" stop-color="#808080" stop-opacity="0.1"/>
</linearGradient>
<linearGradient id="paint3_linear" x1="26834.1" y1="167.828" x2="26834.1" y2="-874.336" gradientUnits="userSpaceOnUse">
<stop stop-color="#808080" stop-opacity="0.25"/>
<stop offset="0.54" stop-color="#808080" stop-opacity="0.12"/>
<stop offset="1" stop-color="#808080" stop-opacity="0.1"/>
</linearGradient>
<clipPath id="clip0">
<rect width="868" height="696" fill="white"/>
</clipPath>
<clipPath id="clip1">
<rect x="197" y="410" width="89" height="176" fill="white"/>
</clipPath>
</defs>
</svg>
